<svg id="圖層_1" data-name="圖層 1" xmlns="http://www.w3.org/2000/svg" viewBox="0 0 57.75 47.76"><defs><style>.cls-1{fill:#006ac6;}</style></defs><title>camera</title><path id="Path_186" data-name="Path 186" class="cls-1" d="M75.15,73.14H24.84a3.72,3.72,0,0,1-3.72-3.72V37.49a3.72,3.72,0,0,1,3.72-3.72h8.85a2.1,2.1,0,0,0,1.72-.9l4.12-6a4.33,4.33,0,0,1,3-1.47H57.45a4.29,4.29,0,0,1,3,1.47l4.1,6a2.15,2.15,0,0,0,1.78.94h8.82a3.73,3.73,0,0,1,3.72,3.72V69.42A3.71,3.71,0,0,1,75.15,73.14ZM50,39.94A13.05,13.05,0,1,0,63,53,13.06,13.06,0,0,0,50,39.94Zm15.84-2a1.86,1.86,0,1,0,1.86,1.86A1.86,1.86,0,0,0,65.84,38Z" transform="translate(-21.12 -25.38)"/><path id="Path" class="cls-1" d="M26.71,28.63h3.73a1.86,1.86,0,0,1,1.86,1.86h0v1.86H24.85V30.5a1.87,1.87,0,0,1,1.86-1.87Z" transform="translate(-21.12 -25.38)"/><path id="Path-2" class="cls-1" d="M39.76,53A10.25,10.25,0,1,1,50,63.24,10.24,10.24,0,0,1,39.76,53Z" transform="translate(-21.12 -25.38)"/></svg>