<svg id="proj-icon" xmlns="http://www.w3.org/2000/svg" viewBox="0 0 26.26 25.93"><defs><style>.cls-1{fill:#006ac6;}</style></defs><title>class</title><path class="cls-1" d="M11,1.37h-8A1.83,1.83,0,0,0,1.06,3.2v8.06A1.83,1.83,0,0,0,2.9,13.09h8a1.84,1.84,0,0,0,1.84-1.83V3.2A1.84,1.84,0,0,0,11,1.37Zm.57,9.3a1.16,1.16,0,0,1-1.16,1.16H3.49a1.16,1.16,0,0,1-1.16-1.16V3.79A1.16,1.16,0,0,1,3.49,2.63h6.87a1.16,1.16,0,0,1,1.16,1.16Z" transform="translate(-1.06 -1.37)"/><path class="cls-1" d="M25.49,1.37h-8A1.83,1.83,0,0,0,15.6,3.2v8.06a1.83,1.83,0,0,0,1.84,1.83h8a1.84,1.84,0,0,0,1.84-1.83V3.2A1.84,1.84,0,0,0,25.49,1.37Zm.57,9.3a1.16,1.16,0,0,1-1.16,1.16H18a1.16,1.16,0,0,1-1.16-1.16V3.79A1.16,1.16,0,0,1,18,2.63H24.9a1.16,1.16,0,0,1,1.16,1.16Z" transform="translate(-1.06 -1.37)"/><path class="cls-1" d="M25.49,15.58h-8a1.83,1.83,0,0,0-1.84,1.83v8.06a1.83,1.83,0,0,0,1.84,1.83h8a1.84,1.84,0,0,0,1.84-1.83V17.41A1.84,1.84,0,0,0,25.49,15.58Zm.57,9.3A1.16,1.16,0,0,1,24.9,26H18a1.16,1.16,0,0,1-1.16-1.16V18A1.16,1.16,0,0,1,18,16.84H24.9A1.16,1.16,0,0,1,26.06,18Z" transform="translate(-1.06 -1.37)"/><path class="cls-1" d="M11,15.58h-8a1.83,1.83,0,0,0-1.84,1.83v8.06A1.83,1.83,0,0,0,2.9,27.3h8a1.84,1.84,0,0,0,1.84-1.83V17.41A1.84,1.84,0,0,0,11,15.58Zm.57,9.3A1.16,1.16,0,0,1,10.36,26H3.49a1.16,1.16,0,0,1-1.16-1.16V18a1.16,1.16,0,0,1,1.16-1.16h6.87A1.16,1.16,0,0,1,11.52,18Z" transform="translate(-1.06 -1.37)"/></svg>