<svg id="Capa_1" data-name="Capa 1" xmlns="http://www.w3.org/2000/svg" viewBox="0 0 511.99 488.4"><defs><style>.cls-1{fill:#ffffff;}</style></defs><title>star_2</title><path class="cls-1" d="M511.27,185.47a15,15,0,0,0-12.11-10.21l-158.72-23-71-143.83a15,15,0,0,0-26.9,0l-71,143.83-158.72,23a15,15,0,0,0-8.31,25.58l114.85,112-27.11,158A15,15,0,0,0,114,486.69l142-74.63,142,74.63a15,15,0,0,0,21.77-15.81L392.61,312.8l114.86-112A15,15,0,0,0,511.27,185.47ZM366,296.82a15,15,0,0,0-4.31,13.28L385,446,263,381.83a15,15,0,0,0-14,0L127,446l23.3-135.9a15,15,0,0,0-4.3-13.27L47.24,200.57l136.44-19.82a15,15,0,0,0,11.3-8.21L256,48.89l61,123.65a15,15,0,0,0,11.3,8.21l136.44,19.82Z" transform="translate(0 -0.02)"/><polygon class="cls-1" points="255.99 43.27 322.32 177.68 470.65 199.23 363.32 303.85 388.66 451.58 255.99 381.83 123.32 451.58 148.66 303.85 41.32 199.23 189.65 177.68 255.99 43.27"/></svg>