<svg id="Capa_1" data-name="Capa 1" xmlns="http://www.w3.org/2000/svg" viewBox="0 0 512.01 488.35"><defs><style>.cls-1{fill:#bfe6ef;}</style></defs><title>star</title><path class="cls-1" d="M511.27,185.45a15,15,0,0,0-12.11-10.21l-158.72-23-71-143.83a15,15,0,0,0-26.9,0l-71,143.83-158.72,23a15,15,0,0,0-8.31,25.58l114.85,112-27.11,158A15,15,0,0,0,114,486.67L256,412l142,74.63a15,15,0,0,0,21.77-15.81L392.61,312.78l114.86-112A15,15,0,0,0,511.27,185.45ZM366,296.8a15,15,0,0,0-4.31,13.28L385,446,263,381.81a15,15,0,0,0-14,0L127,446l23.3-135.9a15,15,0,0,0-4.3-13.27L47.24,200.55l136.44-19.82a15,15,0,0,0,11.3-8.21L256,48.87l61,123.65a15,15,0,0,0,11.3,8.21l136.44,19.82Z" transform="translate(0.02 -0.05)"/><polygon class="cls-1" points="256.01 43.22 322.34 177.63 470.67 199.18 363.34 303.8 388.68 451.53 256.01 381.78 123.34 451.53 148.68 303.8 41.34 199.18 189.67 177.63 256.01 43.22"/></svg>